<?xml version="1.0" ?><!-- Uploaded to: SVG Repo, www.svgrepo.com, Generator: SVG Repo Mixer Tools -->
<svg fill="#000000" width="800px" height="800px" viewBox="0 0 64 64" data-name="Layer 1" id="Layer_1" xmlns="http://www.w3.org/2000/svg"><title/><path d="M21.86,18.73H9.18a2,2,0,0,1,0-4H21.86a2,2,0,0,1,0,4Z"/><path d="M54.82,18.73H34.88a2,2,0,0,1,0-4H54.82a2,2,0,0,1,0,4Z"/><path d="M54.82,34H9.18a2,2,0,0,1,0-4H54.82a2,2,0,0,1,0,4Z"/><path d="M54.82,49.27H30.07a2,2,0,0,1,0-4H54.82a2,2,0,0,1,0,4Z"/></svg>